<?xml version="1.0" standalone="no"?>
<!DOCTYPE svg PUBLIC "-//W3C//DTD SVG 20010904//EN"
 "http://www.w3.org/TR/2001/REC-SVG-20010904/DTD/svg10.dtd">
<svg version="1.0" xmlns="http://www.w3.org/2000/svg"
 width="441.000000pt" height="441.000000pt" viewBox="0 0 441.000000 441.000000"
 preserveAspectRatio="xMidYMid meet">
<metadata>
Created by potrace 1.14, written by Peter Selinger 2001-2017
</metadata>
<g transform="translate(0.000000,441.000000) scale(0.100000,-0.100000)"
fill="#000000" stroke="none">
<path d="M1010 3184 c-144 -28 -286 -91 -385 -171 -148 -120 -236 -270 -295
-498 -5 -22 -15 -99 -22 -172 -21 -241 13 -448 103 -631 44 -90 63 -116 147
-201 134 -136 264 -204 444 -232 98 -15 303 -5 394 19 171 46 326 162 414 311
40 67 109 229 110 258 0 7 -15 16 -32 22 -87 25 -295 90 -310 96 -14 5 -20 -5
-37 -58 -65 -212 -191 -324 -373 -335 -227 -13 -399 128 -454 373 -21 94 -30
368 -15 459 27 158 70 252 148 327 90 86 177 119 310 119 178 0 317 -92 369
-247 10 -29 24 -53 31 -53 8 0 46 6 86 14 40 8 116 22 170 31 65 12 97 22 97
31 0 26 -47 141 -85 209 -78 141 -227 254 -405 307 -50 15 -102 20 -225 23
-88 2 -171 1 -185 -1z"/>
<path d="M2240 2230 l0 -930 175 0 175 0 0 473 c0 512 9 942 20 930 4 -4 25
-84 48 -178 126 -518 278 -1136 292 -1187 l11 -38 179 0 179 0 10 38 c96 386
331 1350 331 1360 0 6 4 12 8 12 13 0 22 -413 22 -947 l0 -463 173 2 172 3 3
928 2 927 -285 0 c-157 0 -285 -2 -285 -5 0 -6 -57 -227 -118 -460 -28 -104
-64 -242 -81 -305 -93 -359 -113 -435 -123 -459 -10 -24 -11 -22 -28 39 -41
153 -189 711 -256 965 -15 55 -34 127 -44 160 l-18 60 -281 3 -281 2 0 -930z"/>
</g>
</svg>
